<svg id="Layer_1" enable-background="new 0 0 512 512" height="512" viewBox="0 0 512 512" xmlns="http://www.w3.org/2000/svg">
<g>
    <path class="st0" d="m467.199 387.674h-38.943v-372.674c0-8.284-6.716-15-15-15h-368.455c-8.284 0-15 6.716-15 15v428.056c0 38.016 30.928 68.944 68.944 68.944h314.511c38.016 0 68.943-30.929 68.943-68.944v-40.382c0-8.284-6.715-15-15-15zm-329.51 15v40.382c-2.146 51.678-75.762 51.637-77.888 0v-413.056h338.456v357.674h-245.568c-8.284 0-15 6.716-15 15zm314.51 40.382c0 21.474-17.47 38.944-38.943 38.944h-257.646c7.617-11.088 12.079-24.505 12.079-38.944v-25.382h284.511v25.382z"/>
    <path class="st0" d="m275.133 121.748h68.579c19.902-.793 19.887-29.215 0-30h-68.579c-19.902.793-19.887 29.215 0 30z"/>
    <path class="st0" d="m343.712 159.779h-68.579c-19.902.793-19.887 29.215 0 30h68.579c19.902-.792 19.887-29.214 0-30z"/>
    <path class="st0" d="m343.712 227.812h-68.579c-19.902.793-19.887 29.215 0 30h68.579c19.902-.793 19.887-29.215 0-30z"/>
    <path class="st0" d="m343.712 295.844h-238.868c-19.902.793-19.887 29.215 0 30h238.868c19.902-.793 19.887-29.215 0-30z"/>
    <path class="st0" d="m104.844 257.812h107.802c8.284 0 15-6.716 15-15v-12.238c0-23.7-12.037-44.64-30.318-57.031 26.845-31.942 3.528-81.981-38.583-81.794-42.109-.188-65.43 49.86-38.582 81.794-18.281 12.391-30.318 33.331-30.318 57.031v12.238c-.001 8.284 6.715 15 14.999 15zm53.901-136.064c11.057 0 20.052 8.966 20.052 19.986-1.1 26.516-39.008 26.508-40.105 0 .001-11.02 8.996-19.986 20.053-19.986zm-.05 69.974h.1c20.494 0 37.333 15.95 38.754 36.09h-77.607c1.42-20.14 18.258-36.09 38.753-36.09z"/>
</g>
</svg>