<?xml version="1.0" encoding="utf-8"?>
<!-- Generator: Adobe Illustrator 23.0.3, SVG Export Plug-In . SVG Version: 6.00 Build 0)  -->
<svg version="1.1" id="Layer_1" xmlns="http://www.w3.org/2000/svg" xmlns:xlink="http://www.w3.org/1999/xlink" x="0px" y="0px"
	 viewBox="0 0 3365 3365" style="enable-background:new 0 0 3365 3365;" xml:space="preserve">
<path class="st1" d="M853.3,3353.1c-200.1-9.1-308.8-42.4-381.1-70.6c-95.8-37.3-164.1-81.7-236-153.5
	c-71.9-71.8-116.4-140.1-153.5-235.9c-28.2-72.3-61.5-181-70.6-381.1C2,2295.6,0,2230.7,0,1682.7s2.2-612.9,11.9-829.4
	C21,653.2,54.5,544.6,82.5,472.1C119.8,376.3,164.3,308,236,236c71.8-71.8,140.1-116.4,236-153.5c72.3-28.2,181-61.5,381.1-70.6
	C1069.6,2,1134.6,0,1682.5,0c548,0,612.9,2.2,829.4,11.9c200.1,9.1,308.6,42.6,381.1,70.6c95.8,37.1,164.1,81.7,236,153.5
	c71.9,71.8,116.2,140.2,153.5,236c28.2,72.3,61.5,181,70.6,381.1c9.9,216.5,11.9,281.3,11.9,829.4c0,547.8-2,612.9-11.9,829.4
	c-9.1,200.1-42.6,308.8-70.6,381.1c-37.3,95.8-81.7,164.1-153.5,235.9c-71.8,71.8-140.2,116.2-236,153.5
	c-72.3,28.2-181,61.5-381.1,70.6c-216.3,9.9-281.3,11.9-829.4,11.9C1134.6,3365,1069.6,3363.1,853.3,3353.1"/>
<path class="st0" d="M1269.4,1689.7c0-230.1,186.5-416.7,416.6-416.7s416.7,186.6,416.7,416.7s-186.6,416.7-416.7,416.7
	S1269.4,1919.8,1269.4,1689.7 M1044.1,1689.7c0,354.5,287.4,641.9,641.9,641.9s641.9-287.4,641.9-641.9s-287.4-641.9-641.9-641.9
	S1044.1,1335.1,1044.1,1689.7 M2203.3,1022.3c0,82.9,67.1,150,150,150.1c82.9,0,150-67.1,150.1-150s-67.1-150-150-150.1h-0.1
	C2270.5,872.4,2203.4,939.5,2203.3,1022.3 M1181,2707.2c-121.9-5.6-188.1-25.9-232.2-43c-58.4-22.7-100-49.8-143.8-93.5
	s-70.9-85.3-93.5-143.7c-17.2-44-37.5-110.3-43-232.2c-6.1-131.8-7.3-171.4-7.3-505.2s1.3-373.3,7.3-505.2
	c5.6-121.9,26-188,43-232.2c22.7-58.4,49.8-100,93.5-143.8s85.3-70.9,143.8-93.5c44-17.2,110.3-37.5,232.2-43
	c131.8-6.1,171.4-7.3,505-7.3s373.3,1.3,505.2,7.3c121.9,5.6,188,26,232.2,43c58.4,22.6,100,49.8,143.8,93.5s70.8,85.4,93.5,143.8
	c17.2,44,37.5,110.3,43,232.2c6.1,131.9,7.3,171.4,7.3,505.2s-1.2,373.3-7.3,505.2c-5.6,121.9-26,188.1-43,232.2
	c-22.7,58.4-49.8,100-93.5,143.7c-43.7,43.7-85.4,70.8-143.8,93.5c-44,17.2-110.3,37.5-232.2,43c-131.8,6.1-171.4,7.3-505.2,7.3
	S1312.7,2713.3,1181,2707.2 M1170.6,447.1c-133.1,6.1-224,27.2-303.4,58.1c-82.2,31.9-151.9,74.7-221.4,144.2
	S533.4,788.5,501.5,870.8c-30.9,79.5-52,170.4-58.1,303.4c-6.2,133.3-7.6,175.9-7.6,515.4s1.4,382.1,7.6,515.4
	c6.1,133.1,27.2,224,58.1,303.4c31.9,82.2,74.6,152,144.2,221.4s139.2,112.2,221.4,144.2c79.6,30.9,170.4,52,303.4,58.1
	c133.4,6.1,175.9,7.6,515.4,7.6s382.1-1.4,515.4-7.6c133.1-6.1,224-27.2,303.4-58.1c82.2-32,151.9-74.7,221.4-144.2
	c69.6-69.5,112.2-139.3,144.2-221.4c30.9-79.5,52.1-170.4,58.1-303.4c6.1-133.4,7.5-175.9,7.5-515.4s-1.4-382.1-7.5-515.4
	c-6.1-133.1-27.2-224-58.1-303.4c-32-82.2-74.7-151.9-144.2-221.4c-69.5-69.6-139.3-112.3-221.3-144.2
	c-79.6-30.9-170.5-52.1-303.4-58.1c-133.3-6.1-175.9-7.6-515.3-7.6S1304,441,1170.6,447.1"/>
</svg>
