<svg version="1.1" id="Layer_1" xmlns="http://www.w3.org/2000/svg" xmlns:xlink="http://www.w3.org/1999/xlink" x="0px" y="0px"
	 viewBox="0 0 658.2 662" style="enable-background:new 0 0 658.2 662;" xml:space="preserve">
<path class="st1" d="M0,47.4C0,21.2,21.8,0,48.6,0h560.6c26.9,0,48.6,21.2,48.6,47.4v567.2c0,26.2-21.8,47.4-48.6,47.4H48.6
	C21.8,662,0,640.8,0,614.6L0,47.4L0,47.4z"/>
<path class="st0" d="M199.4,554.2V255.2h-99.4v298.9H199.4L199.4,554.2z M149.8,214.4c34.6,0,56.2-23,56.2-51.6
	c-0.7-29.3-21.6-51.7-55.5-51.7c-34,0-56.2,22.3-56.2,51.7c0,28.7,21.6,51.6,54.9,51.6H149.8L149.8,214.4z M254.4,554.2h99.4V387.2
	c0-8.9,0.7-17.9,3.3-24.2c7.2-17.9,23.5-36.3,51-36.3c35.9,0,50.3,27.4,50.3,67.6v159.9h99.4V382.8c0-91.8-49-134.5-114.4-134.5
	c-53.6,0-77.1,30-90.2,50.4h0.7v-43.3h-99.4C255.7,283.3,254.4,554.2,254.4,554.2L254.4,554.2z"/>
</svg>
