<svg version="1.1" id="Capa_1" xmlns="http://www.w3.org/2000/svg" xmlns:xlink="http://www.w3.org/1999/xlink" x="0px" y="0px"
	viewBox="0 0 512 512" style="enable-background:new 0 0 512 512;" xml:space="preserve">
<g>
	<g>
		<path class="st0" d="M452,36H60C26.9,36,0,62.9,0,96v240c0,33.1,26.9,60,60,60h176v40H132v40h248v-40H276v-40h176
			c33.1,0,60-26.9,60-60V96C512,62.9,485.1,36,452,36z M472,336c0,11-9,20-20,20H60c-11,0-20-9-20-20V96c0-11,9-20,20-20h392
			c11,0,20,9,20,20V336z"/>
	</g>
</g>
<g>
	<g>
		<path class="st0" d="M350,262c-14.5-14.5-31.7-25.2-50.5-31.7c20.1-13.9,33.4-37.1,33.4-63.4c0-42.4-34.5-76.9-76.9-76.9
			s-76.9,34.5-76.9,76.9c0,26.3,13.2,49.5,33.4,63.4c-18.8,6.5-36.1,17.2-50.5,31.7c-25.1,25.1-39,58.5-39,94h20.8
			c0-61.9,50.3-112.2,112.2-112.2S368.2,294.1,368.2,356H389C389,320.5,375.2,287.1,350,262z M256,223c-30.9,0-56.1-25.2-56.1-56.1
			s25.2-56.1,56.1-56.1s56.1,25.2,56.1,56.1S286.9,223,256,223z"/>
	</g>
</g>
</svg>